<svg width="121" height="42" viewBox="0 0 121 42" fill="none" xmlns="http://www.w3.org/2000/svg">
<path fill-rule="evenodd" clip-rule="evenodd" d="M0.771545 0.527345V0.946255V5.13541V41.9999L0.771595 41.9999L5.37961 41.9999L37.6361 41.9999L41.8252 41.9999L42.2441 41.9999V5.13541H37.6361V37.3918H5.37961V5.13541L37.636 5.13541V0.527344L0.771545 0.527345Z" fill="url(#paint0_linear)"/>
<path fill-rule="evenodd" clip-rule="evenodd" d="M15.0146 11.8379H19.2038V11.8379L28.4199 11.8379V16.027L19.2038 16.027V19.7973H15.0146V16.027H15.0146L15.0146 11.8379H15.0146V11.8379ZM23.8117 25.2432V21.054H19.2037H15.0146H15.0145V25.2432H15.0146V31.5269H19.2037V25.2432H23.8117Z" fill="#404040"/>
<path d="M54.4547 22.945C55.5817 22.945 56.5573 23.1303 57.3814 23.501C58.2176 23.8717 58.8598 24.3979 59.3082 25.0795C59.7566 25.7611 59.9808 26.5682 59.9808 27.501C59.9808 28.4217 59.7566 29.2289 59.3082 29.9225C58.8598 30.6041 58.2176 31.1302 57.3814 31.5009C56.5573 31.8596 55.5817 32.039 54.4547 32.039H51.8915V35.5008H48.9467V22.945H54.4547ZM54.2911 29.6713C55.1757 29.6713 55.8483 29.486 56.3088 29.1153C56.7694 28.7326 56.9996 28.1945 56.9996 27.501C56.9996 26.7954 56.7694 26.2573 56.3088 25.8866C55.8483 25.504 55.1757 25.3127 54.2911 25.3127H51.8915V29.6713H54.2911Z" fill="#404040"/>
<path d="M68.7868 35.7161C67.4658 35.7161 66.2721 35.4351 65.2057 34.8731C64.1513 34.311 63.3212 33.5397 62.7152 32.5592C62.1214 31.5667 61.8245 30.4546 61.8245 29.2229C61.8245 27.9912 62.1214 26.8851 62.7152 25.9046C63.3212 24.9121 64.1513 24.1348 65.2057 23.5728C66.2721 23.0108 67.4658 22.7297 68.7868 22.7297C70.1077 22.7297 71.2954 23.0108 72.3497 23.5728C73.404 24.1348 74.2342 24.9121 74.8401 25.9046C75.4461 26.8851 75.749 27.9912 75.749 29.2229C75.749 30.4546 75.4461 31.5667 74.8401 32.5592C74.2342 33.5397 73.404 34.311 72.3497 34.8731C71.2954 35.4351 70.1077 35.7161 68.7868 35.7161ZM68.7868 33.2408C69.5381 33.2408 70.2168 33.0734 70.8227 32.7386C71.4287 32.3918 71.9013 31.9135 72.2406 31.3036C72.5921 30.6937 72.7678 30.0002 72.7678 29.2229C72.7678 28.4456 72.5921 27.7521 72.2406 27.1422C71.9013 26.5324 71.4287 26.06 70.8227 25.7252C70.2168 25.3784 69.5381 25.205 68.7868 25.205C68.0354 25.205 67.3567 25.3784 66.7508 25.7252C66.1449 26.06 65.6662 26.5324 65.3147 27.1422C64.9754 27.7521 64.8057 28.4456 64.8057 29.2229C64.8057 30.0002 64.9754 30.6937 65.3147 31.3036C65.6662 31.9135 66.1449 32.3918 66.7508 32.7386C67.3567 33.0734 68.0354 33.2408 68.7868 33.2408Z" fill="#404040"/>
<path d="M82.5068 35.7161C81.5009 35.7161 80.5254 35.5846 79.5801 35.3215C78.6469 35.0464 77.8956 34.6937 77.326 34.2632L78.3258 32.0749C78.8711 32.4695 79.5195 32.7864 80.2709 33.0255C81.0222 33.2647 81.7736 33.3843 82.525 33.3843C83.3612 33.3843 83.9792 33.2647 84.3791 33.0255C84.7791 32.7744 84.979 32.4456 84.979 32.039C84.979 31.7401 84.8578 31.4949 84.6155 31.3036C84.3852 31.1003 84.0822 30.9389 83.7065 30.8193C83.343 30.6997 82.8461 30.5682 82.2159 30.4247C81.2464 30.1975 80.4526 29.9703 79.8346 29.7431C79.2165 29.5159 78.6833 29.1512 78.2349 28.6489C77.7986 28.1467 77.5805 27.4771 77.5805 26.64C77.5805 25.9106 77.7804 25.2529 78.1804 24.6669C78.5803 24.069 79.1802 23.5967 79.98 23.2499C80.792 22.9031 81.7797 22.7297 82.9431 22.7297C83.755 22.7297 84.5488 22.8254 85.3244 23.0167C86.1 23.2081 86.7787 23.4831 87.3604 23.8418L86.4515 26.0481C85.2759 25.3904 84.1004 25.0615 82.9249 25.0615C82.1008 25.0615 81.4888 25.1931 81.0889 25.4562C80.7011 25.7192 80.5072 26.066 80.5072 26.4965C80.5072 26.927 80.7314 27.2498 81.1798 27.4651C81.6403 27.6684 82.3371 27.8717 83.2703 28.0749C84.2398 28.3021 85.0336 28.5293 85.6516 28.7566C86.2697 28.9838 86.7968 29.3425 87.2331 29.8328C87.6815 30.323 87.9057 30.9867 87.9057 31.8238C87.9057 32.5412 87.6997 33.1989 87.2877 33.7968C86.8877 34.3828 86.2818 34.8491 85.4698 35.1959C84.6579 35.5427 83.6702 35.7161 82.5068 35.7161Z" fill="#404040"/>
<path d="M51.8807 9.44024V12.8656H57.7488V15.2726H51.8807V19.9941H48.9467V7.03322H58.5276V9.44024H51.8807Z" fill="#404040"/>
<path d="M66.5088 20.2163C64.6977 20.2163 63.285 19.704 62.2707 18.6795C61.2686 17.655 60.7675 16.1923 60.7675 14.2913V7.03322H63.7016V14.1802C63.7016 16.5008 64.6433 17.6612 66.5269 17.6612C67.4446 17.6612 68.1449 17.3834 68.6279 16.828C69.1108 16.2601 69.3523 15.3776 69.3523 14.1802V7.03322H72.2502V14.2913C72.2502 16.1923 71.743 17.655 70.7288 18.6795C69.7266 19.704 68.32 20.2163 66.5088 20.2163Z" fill="#404040"/>
<path d="M79.6774 20.2163C78.6752 20.2163 77.7033 20.0805 76.7615 19.809C75.8317 19.5251 75.0831 19.1609 74.5156 18.7165L75.5118 16.4576C76.0551 16.865 76.7011 17.1921 77.4497 17.439C78.1983 17.6858 78.9469 17.8093 79.6955 17.8093C80.5287 17.8093 81.1444 17.6858 81.5429 17.439C81.9413 17.1798 82.1406 16.8403 82.1406 16.4206C82.1406 16.112 82.0198 15.859 81.7783 15.6615C81.5489 15.4516 81.2471 15.285 80.8728 15.1616C80.5105 15.0381 80.0155 14.9023 79.3876 14.7542C78.4217 14.5197 77.6308 14.2852 77.015 14.0506C76.3992 13.8161 75.868 13.4396 75.4212 12.9212C74.9865 12.4027 74.7692 11.7115 74.7692 10.8474C74.7692 10.0945 74.9684 9.41556 75.3669 8.81072C75.7653 8.19353 76.363 7.70595 77.1599 7.34799C77.9689 6.99002 78.953 6.81104 80.1121 6.81104C80.9211 6.81104 81.7119 6.90978 82.4847 7.10728C83.2574 7.30478 83.9336 7.58869 84.5132 7.959L83.6076 10.2364C82.4364 9.55751 81.2652 9.21806 80.094 9.21806C79.2729 9.21806 78.6632 9.35384 78.2647 9.6254C77.8783 9.89696 77.6852 10.2549 77.6852 10.6993C77.6852 11.1437 77.9085 11.477 78.3553 11.6991C78.8141 11.909 79.5084 12.1188 80.4381 12.3287C81.404 12.5632 82.1949 12.7977 82.8107 13.0323C83.4265 13.2668 83.9517 13.6371 84.3864 14.1432C84.8331 14.6493 85.0565 15.3344 85.0565 16.1984C85.0565 16.939 84.8513 17.618 84.4407 18.2351C84.0423 18.84 83.4386 19.3214 82.6296 19.6794C81.8206 20.0373 80.8365 20.2163 79.6774 20.2163Z" fill="#404040"/>
<path d="M87.4236 7.03322H90.3577V19.9941H87.4236V7.03322Z" fill="#404040"/>
<path d="M99.8684 20.2163C98.5523 20.2163 97.363 19.9262 96.3005 19.3461C95.25 18.7659 94.4229 17.9697 93.8192 16.9576C93.2276 15.933 92.9317 14.7851 92.9317 13.5137C92.9317 12.2423 93.2276 11.1005 93.8192 10.0883C94.4229 9.06376 95.25 8.26142 96.3005 7.68127C97.363 7.10111 98.5523 6.81104 99.8684 6.81104C101.185 6.81104 102.368 7.10111 103.418 7.68127C104.469 8.26142 105.296 9.06376 105.9 10.0883C106.503 11.1005 106.805 12.2423 106.805 13.5137C106.805 14.7851 106.503 15.933 105.9 16.9576C105.296 17.9697 104.469 18.7659 103.418 19.3461C102.368 19.9262 101.185 20.2163 99.8684 20.2163ZM99.8684 17.6612C100.617 17.6612 101.293 17.4883 101.897 17.1427C102.501 16.7848 102.972 16.291 103.31 15.6615C103.66 15.0319 103.835 14.316 103.835 13.5137C103.835 12.7113 103.66 11.9954 103.31 11.3659C102.972 10.7363 102.501 10.2488 101.897 9.90313C101.293 9.54517 100.617 9.36618 99.8684 9.36618C99.1198 9.36618 98.4437 9.54517 97.84 9.90313C97.2362 10.2488 96.7593 10.7363 96.4091 11.3659C96.0711 11.9954 95.902 12.7113 95.902 13.5137C95.902 14.316 96.0711 15.0319 96.4091 15.6615C96.7593 16.291 97.2362 16.7848 97.84 17.1427C98.4437 17.4883 99.1198 17.6612 99.8684 17.6612Z" fill="#404040"/>
<path d="M121 7.03322V19.9941H118.591L112.27 12.125V19.9941H109.372V7.03322H111.799L118.102 14.9023V7.03322H121Z" fill="#404040"/>
<defs>
<linearGradient id="paint0_linear" x1="0.771545" y1="0.527344" x2="42.2441" y2="42" gradientUnits="userSpaceOnUse">
<stop stop-color="#1DC4F4"/>
<stop offset="1" stop-color="#05AEF1"/>
</linearGradient>
</defs>
</svg>
