<svg width="104" height="88" viewBox="0 0 104 88" fill="none" xmlns="http://www.w3.org/2000/svg">
<g clip-path="url(#clip0)">
<path d="M0 8.0442C8.63961 8.0442 13.437 0.0344071 22.5459 0.000354165C31.7674 -0.0341197 35.7581 8.0442 45.1009 8.0442" stroke="white" stroke-opacity="0.49" stroke-width="3"/>
<path d="M44.7996 8.04395C53.4392 8.04395 58.2365 0.0341629 67.3454 0.000110024C76.5669 -0.0343639 80.5577 8.04396 89.9005 8.04396" stroke="white" stroke-opacity="0.49" stroke-width="3"/>
<path d="M89.9004 8.04395C98.54 8.04395 103.337 0.0341629 112.446 0.000110024C121.668 -0.0343639 125.659 8.04396 135.001 8.04396" stroke="white" stroke-opacity="0.49" stroke-width="3"/>
<path d="M0 16.0891C8.63961 16.0891 13.437 8.07933 22.5459 8.04528C31.7674 8.0108 35.7581 16.0891 45.1009 16.0891" stroke="white" stroke-opacity="0.49" stroke-width="3"/>
<path d="M44.7996 16.0884C53.4392 16.0884 58.2365 8.0786 67.3454 8.04454C76.5669 8.01007 80.5577 16.0884 89.9005 16.0884" stroke="white" stroke-opacity="0.49" stroke-width="3"/>
<path d="M89.9004 16.0884C98.54 16.0884 103.337 8.0786 112.446 8.04454C121.668 8.01007 125.659 16.0884 135.001 16.0884" stroke="white" stroke-opacity="0.49" stroke-width="3"/>
<path d="M0 24.1333C8.63961 24.1333 13.437 16.1235 22.5459 16.0895C31.7674 16.055 35.7581 24.1333 45.1009 24.1333" stroke="white" stroke-opacity="0.49" stroke-width="3"/>
<path d="M44.7996 24.1331C53.4392 24.1331 58.2365 16.1233 67.3454 16.0892C76.5669 16.0547 80.5577 24.1331 89.9005 24.1331" stroke="white" stroke-opacity="0.49" stroke-width="3"/>
<path d="M89.9004 24.1331C98.54 24.1331 103.337 16.1233 112.446 16.0892C121.668 16.0547 125.659 24.1331 135.001 24.1331" stroke="white" stroke-opacity="0.49" stroke-width="3"/>
<path d="M0 32.1785C8.63961 32.1785 13.437 24.1687 22.5459 24.1346C31.7674 24.1002 35.7581 32.1785 45.1009 32.1785" stroke="white" stroke-opacity="0.49" stroke-width="3"/>
<path d="M44.7996 32.1773C53.4392 32.1773 58.2365 24.1675 67.3454 24.1334C76.5669 24.0989 80.5577 32.1773 89.9005 32.1773" stroke="white" stroke-opacity="0.49" stroke-width="3"/>
<path d="M89.9004 32.1773C98.54 32.1773 103.337 24.1675 112.446 24.1334C121.668 24.0989 125.659 32.1773 135.001 32.1773" stroke="white" stroke-opacity="0.49" stroke-width="3"/>
<path d="M0 40.2236C8.63961 40.2236 13.437 32.2139 22.5459 32.1798C31.7674 32.1453 35.7581 40.2236 45.1009 40.2236" stroke="white" stroke-opacity="0.49" stroke-width="3"/>
<path d="M44.7996 40.2224C53.4392 40.2224 58.2365 32.2126 67.3454 32.1786C76.5669 32.1441 80.5577 40.2224 89.9005 40.2224" stroke="white" stroke-opacity="0.49" stroke-width="3"/>
<path d="M89.9004 40.2224C98.54 40.2224 103.337 32.2126 112.446 32.1786C121.668 32.1441 125.659 40.2224 135.001 40.2224" stroke="white" stroke-opacity="0.49" stroke-width="3"/>
<path d="M0 48.2686C8.63961 48.2686 13.437 40.2588 22.5459 40.2247C31.7674 40.1902 35.7581 48.2686 45.1009 48.2686" stroke="white" stroke-opacity="0.49" stroke-width="3"/>
<path d="M44.7996 48.2676C53.4392 48.2676 58.2365 40.2578 67.3454 40.2237C76.5669 40.1893 80.5577 48.2676 89.9005 48.2676" stroke="white" stroke-opacity="0.49" stroke-width="3"/>
<path d="M89.9004 48.2676C98.54 48.2676 103.337 40.2578 112.446 40.2237C121.668 40.1893 125.659 48.2676 135.001 48.2676" stroke="white" stroke-opacity="0.49" stroke-width="3"/>
<path d="M0 56.3125C8.63961 56.3125 13.437 48.3027 22.5459 48.2687C31.7674 48.2342 35.7581 56.3125 45.1009 56.3125" stroke="white" stroke-opacity="0.49" stroke-width="3"/>
<path d="M44.7996 56.3125C53.4392 56.3125 58.2365 48.3027 67.3454 48.2687C76.5669 48.2342 80.5577 56.3125 89.9005 56.3125" stroke="white" stroke-opacity="0.49" stroke-width="3"/>
<path d="M89.9004 56.3125C98.54 56.3125 103.337 48.3027 112.446 48.2687C121.668 48.2342 125.659 56.3125 135.001 56.3125" stroke="white" stroke-opacity="0.49" stroke-width="3"/>
<path d="M0 64.3565C8.63961 64.3565 13.437 56.3467 22.5459 56.3126C31.7674 56.2781 35.7581 64.3565 45.1009 64.3565" stroke="white" stroke-opacity="0.49" stroke-width="3"/>
<path d="M44.7996 64.3565C53.4392 64.3565 58.2365 56.3467 67.3454 56.3126C76.5669 56.2781 80.5577 64.3565 89.9005 64.3565" stroke="white" stroke-opacity="0.49" stroke-width="3"/>
<path d="M89.9004 64.3565C98.54 64.3565 103.337 56.3467 112.446 56.3126C121.668 56.2781 125.659 64.3565 135.001 64.3565" stroke="white" stroke-opacity="0.49" stroke-width="3"/>
<path d="M0 72.4016C8.63961 72.4016 13.437 64.3918 22.5459 64.3578C31.7674 64.3233 35.7581 72.4016 45.1009 72.4016" stroke="white" stroke-opacity="0.49" stroke-width="3"/>
<path d="M44.7996 72.4006C53.4392 72.4006 58.2365 64.3909 67.3454 64.3568C76.5669 64.3223 80.5577 72.4006 89.9005 72.4006" stroke="white" stroke-opacity="0.49" stroke-width="3"/>
<path d="M89.9004 72.4006C98.54 72.4006 103.337 64.3909 112.446 64.3568C121.668 64.3223 125.659 72.4006 135.001 72.4006" stroke="white" stroke-opacity="0.49" stroke-width="3"/>
<path d="M0 80.4461C8.63961 80.4461 13.437 72.4363 22.5459 72.4022C31.7674 72.3677 35.7581 80.4461 45.1009 80.4461" stroke="white" stroke-opacity="0.49" stroke-width="3"/>
<path d="M44.7996 80.4456C53.4392 80.4456 58.2365 72.4358 67.3454 72.4017C76.5669 72.3672 80.5577 80.4456 89.9005 80.4456" stroke="white" stroke-opacity="0.49" stroke-width="3"/>
<path d="M89.9004 80.4456C98.54 80.4456 103.337 72.4358 112.446 72.4017C121.668 72.3672 125.659 80.4456 135.001 80.4456" stroke="white" stroke-opacity="0.49" stroke-width="3"/>
<path d="M0 88.4902C8.63961 88.4902 13.437 80.4805 22.5459 80.4464C31.7674 80.4119 35.7581 88.4902 45.1009 88.4902" stroke="white" stroke-opacity="0.49" stroke-width="3"/>
<path d="M44.7996 88.4902C53.4392 88.4902 58.2365 80.4805 67.3454 80.4464C76.5669 80.4119 80.5577 88.4902 89.9005 88.4902" stroke="white" stroke-opacity="0.49" stroke-width="3"/>
<path d="M89.9004 88.4902C98.54 88.4902 103.337 80.4805 112.446 80.4464C121.668 80.4119 125.659 88.4902 135.001 88.4902" stroke="white" stroke-opacity="0.49" stroke-width="3"/>
</g>
<defs>
<clipPath id="clip0">
<rect width="104" height="88" fill="white"/>
</clipPath>
</defs>
</svg>
